<svg width="24" height="24" viewBox="0 0 24 24" fill="none" xmlns="http://www.w3.org/2000/svg">
<g clip-path="url(#clip0)">
<path d="M23.2616 12.2242C23.2616 11.2409 23.1824 10.5234 23.0111 9.7793H11.8682V14.2173H18.4088C18.277 15.3202 17.5649 16.9811 15.9824 18.0972L15.9603 18.2458L19.4834 20.996L19.7275 21.0205C21.9693 18.9344 23.2616 15.8649 23.2616 12.2242Z" fill="#4285F4"/>
<path d="M11.8679 23.9178C15.0723 23.9178 17.7624 22.8548 19.7273 21.0211L15.9822 18.0978C14.98 18.8021 13.6349 19.2937 11.8679 19.2937C8.72944 19.2937 6.06572 17.2076 5.11617 14.3242L4.97699 14.3361L1.31353 17.193L1.26562 17.3271C3.21726 21.2337 7.22608 23.9178 11.8679 23.9178Z" fill="#34A853"/>
<path d="M5.11645 14.3248C4.86591 13.5807 4.72091 12.7834 4.72091 11.9596C4.72091 11.1357 4.86591 10.3385 5.10327 9.5944L5.09664 9.43592L1.38727 6.5332L1.26591 6.59137C0.461546 8.21247 0 10.0329 0 11.9596C0 13.8863 0.461546 15.7066 1.26591 17.3277L5.11645 14.3248Z" fill="#FBBC05"/>
<path d="M11.8679 4.62403C14.0964 4.62403 15.5997 5.59402 16.4569 6.40461L19.8064 3.10928C17.7493 1.1826 15.0723 0 11.8679 0C7.22608 0 3.21726 2.68406 1.26562 6.59056L5.10299 9.59359C6.06572 6.7102 8.72944 4.62403 11.8679 4.62403Z" fill="#EB4335"/>
</g>
<defs>
<clipPath id="clip0">
<rect width="23.2727" height="24" fill="white"/>
</clipPath>
</defs>
</svg>
